<svg xmlns="http://www.w3.org/2000/svg" xmlns:xlink="http://www.w3.org/1999/xlink" width="1200" zoomAndPan="magnify" viewBox="0 0 900 449.999984" height="600" preserveAspectRatio="xMidYMid meet" version="1.0"><defs><g/></defs><g fill="#ffffff" fill-opacity="1"><g transform="translate(10.595858, 416.27703)"><g><path d="M 288.378906 -391.019531 L 224.835938 -391.019531 C 221.414062 -391.019531 219.460938 -388.574219 219.460938 -386.621094 L 219.460938 -130.503906 C 219.460938 -90.914062 183.289062 -71.851562 146.632812 -71.851562 C 110.464844 -71.851562 78.203125 -92.378906 73.804688 -130.992188 L 73.804688 -320.148438 L 0 -320.148438 L 0 -130.503906 C 0 -49.855469 65.984375 0 146.632812 0 C 229.722656 0 293.265625 -47.898438 293.265625 -130.503906 L 293.265625 -386.621094 C 293.265625 -388.574219 290.820312 -391.019531 288.378906 -391.019531 Z M 288.378906 -391.019531 "/></g></g></g><g fill="#ffffff" fill-opacity="1"><g transform="translate(338.074633, 416.27703)"><g><path d="M 131.480469 -391.019531 L 4.886719 -391.019531 C 2.445312 -391.019531 0 -388.574219 0 -386.621094 L 0 -319.171875 L 131.480469 -319.171875 C 140.277344 -319.171875 189.15625 -316.726562 189.15625 -273.714844 C 189.15625 -230.703125 141.257812 -229.722656 131.480469 -229.722656 L 0 -229.722656 L 0 -4.398438 C 0 -2.445312 2.445312 0 4.886719 0 L 68.429688 0 C 71.851562 0 73.316406 -2.445312 73.316406 -4.398438 L 73.316406 -157.386719 L 131.480469 -157.386719 C 140.765625 -157.386719 263.449219 -158.851562 263.449219 -273.714844 C 263.449219 -388.574219 147.121094 -391.019531 131.480469 -391.019531 Z M 131.480469 -391.019531 "/></g></g></g><g fill="#ffffff" fill-opacity="1"><g transform="translate(634.271855, 416.27703)"><g><path d="M 179.378906 -217.015625 C 151.519531 -230.214844 124.148438 -230.214844 121.703125 -230.214844 C 96.777344 -230.214844 72.828125 -244.875 72.828125 -273.226562 C 72.828125 -304.507812 94.824219 -320.636719 121.703125 -320.636719 C 147.121094 -320.636719 168.628906 -307.441406 169.605469 -279.578125 C 169.605469 -278.113281 172.046875 -275.667969 174.980469 -275.667969 L 236.078125 -275.667969 C 239.5 -275.667969 241.945312 -278.113281 241.453125 -279.578125 C 240.476562 -346.050781 188.667969 -391.019531 121.703125 -391.019531 C 59.140625 -391.019531 0 -346.542969 0 -273.226562 C 0 -227.769531 22.972656 -193.066406 63.539062 -174.492188 C 91.890625 -161.296875 118.285156 -161.296875 121.703125 -161.296875 C 143.699219 -160.316406 170.582031 -142.722656 170.582031 -113.882812 C 170.582031 -87.980469 147.609375 -70.382812 121.703125 -70.382812 C 121.703125 -70.382812 121.703125 -70.382812 121.214844 -70.382812 L 121.214844 0 C 121.703125 0 121.703125 0 121.703125 0 C 184.269531 0 242.921875 -40.566406 242.921875 -113.882812 C 242.921875 -159.828125 220.4375 -197.953125 179.378906 -217.015625 Z M 179.378906 -217.015625 "/></g></g></g></svg>